<svg id="Слой_1" data-name="Слой 1" xmlns="http://www.w3.org/2000/svg" xmlns:xlink="http://www.w3.org/1999/xlink" viewBox="0 0 715.58 594.15"><defs><style>.cls-1{fill:#e6c9b9;}.cls-2{fill:#df8e75;}.cls-3{fill:#5dc2d7;}.cls-4{fill:#312783;}.cls-5{fill:#cba7aa;}.cls-6{fill:#e5c8b8;}.cls-7{fill:#1593ae;}.cls-8{fill:#cfe7df;}.cls-9{fill:url(#Безымянный_градиент_34);}.cls-10{fill:url(#Безымянный_градиент_34-2);}.cls-11{fill:#f2dace;}.cls-12{fill:#addadd;}.cls-13{fill:url(#Безымянный_градиент_91);}.cls-14{fill:#caa7aa;}.cls-15{fill:url(#Безымянный_градиент_11);}.cls-16{fill:url(#Безымянный_градиент_11-2);}.cls-17{fill:url(#Безымянный_градиент_91-2);}.cls-18{fill:url(#Безымянный_градиент_93);}.cls-19{fill:url(#Безымянный_градиент_93-2);}.cls-20{fill:url(#Безымянный_градиент_38);}.cls-21{fill:url(#Безымянный_градиент_34-3);}.cls-22{mask:url(#mask);}.cls-23{fill:url(#Безымянный_градиент_9);}.cls-24{fill:url(#Безымянный_градиент_38-2);}.cls-25{fill:url(#Безымянный_градиент_38-3);}.cls-26{fill:url(#Безымянный_градиент_38-4);}.cls-27{fill:url(#Безымянный_градиент_38-5);}.cls-28{fill:url(#Безымянный_градиент_36);}.cls-29{mask:url(#mask-2);}.cls-30{fill:url(#Безымянный_градиент_9-2);}.cls-31{fill:url(#Безымянный_градиент_91-3);}.cls-32{fill:url(#Безымянный_градиент_11-3);}.cls-33{fill:url(#Безымянный_градиент_11-4);}.cls-34{fill:url(#Безымянный_градиент_91-4);}.cls-35{fill:url(#Безымянный_градиент_93-3);}.cls-36{fill:url(#Безымянный_градиент_93-4);}.cls-37{fill:url(#Безымянный_градиент_48);}.cls-38{fill:url(#Безымянный_градиент_45);}.cls-39{fill:url(#Безымянный_градиент_48-2);}.cls-40{fill:url(#Безымянный_градиент_48-3);}.cls-41{fill:url(#Безымянный_градиент_48-4);}.cls-42{mask:url(#mask-3);}.cls-43{fill:url(#Безымянный_градиент_9-3);}.cls-44{filter:url(#luminosity-invert);}</style><linearGradient id="Безымянный_градиент_34" x1="-7.89" y1="138.46" x2="1.33" y2="138.46" gradientTransform="matrix(-0.6, -0.8, -0.8, 0.6, 744.35, 52.25)" gradientUnits="userSpaceOnUse"><stop offset="0" stop-color="#724793"/><stop offset="1" stop-color="#8dd2f6"/></linearGradient><linearGradient id="Безымянный_градиент_34-2" x1="-17.51" y1="140.19" x2="-6.87" y2="140.19" gradientTransform="matrix(-0.67, -0.74, -0.74, 0.67, 741.03, 37.46)" xlink:href="#Безымянный_градиент_34"/><linearGradient id="Безымянный_градиент_91" x1="100.86" y1="210.05" x2="177.85" y2="210.05" gradientTransform="matrix(-1, 0, 0, 1, 632.67, 0)" gradientUnits="userSpaceOnUse"><stop offset="0" stop-color="#1593ae"/><stop offset="1" stop-color="#5dc2d7"/></linearGradient><linearGradient id="Безымянный_градиент_11" x1="147.76" y1="153.23" x2="147.76" y2="111.7" gradientTransform="matrix(-0.99, -0.12, -0.12, 0.99, 654.69, 19.76)" gradientUnits="userSpaceOnUse"><stop offset="0" stop-color="#493527"/><stop offset="1" stop-color="#765162"/></linearGradient><linearGradient id="Безымянный_градиент_11-2" x1="147.23" y1="136.4" x2="147.23" y2="111.69" xlink:href="#Безымянный_градиент_11"/><linearGradient id="Безымянный_градиент_91-2" x1="55.4" y1="405.7" x2="180.14" y2="405.7" xlink:href="#Безымянный_градиент_91"/><linearGradient id="Безымянный_градиент_93" x1="161.1" y1="559.71" x2="222.19" y2="559.71" gradientTransform="matrix(-1, 0, 0, 1, 632.67, 0)" gradientUnits="userSpaceOnUse"><stop offset="0" stop-color="#f8f2ed"/><stop offset="1" stop-color="#807db9"/></linearGradient><linearGradient id="Безымянный_градиент_93-2" x1="33.08" y1="560.83" x2="71.9" y2="560.83" xlink:href="#Безымянный_градиент_93"/><linearGradient id="Безымянный_градиент_38" x1="1565.06" y1="239.3" x2="1586.89" y2="215.35" gradientTransform="translate(-749 971.47) rotate(-32.94)" gradientUnits="userSpaceOnUse"><stop offset="0" stop-color="#a32c49"/><stop offset="1" stop-color="#b37a66"/></linearGradient><linearGradient id="Безымянный_градиент_34-3" x1="-7.84" y1="138.36" x2="1.39" y2="138.36" gradientTransform="matrix(-0.6, -0.8, -0.8, 0.6, 744.25, 52.26)" xlink:href="#Безымянный_градиент_34"/><filter id="luminosity-invert" filterUnits="userSpaceOnUse" color-interpolation-filters="sRGB"><feColorMatrix values="-1 0 0 0 1 0 -1 0 0 1 0 0 -1 0 1 0 0 0 1 0"/></filter><mask id="mask" x="507.7" y="102.25" width="192.98" height="491.9" maskUnits="userSpaceOnUse"><g class="cls-44"><g transform="translate(-85.01 -5.86)"><path class="cls-1" d="M618,199.89l-11,1.64,17.35-50.69s-.23-4.66-3.5-11.23c-3.79-7.62-7.48-10-7.48-10s-3.65,7.88-1.24,13c.58,1.23,5.52,8.2,5.52,8.2s-13,25.18-22.22,44.61c-5.51,11.58-.9,15.28-.9,15.28l28.13,2.1Z"/><path class="cls-2" d="M634.51,160.12c-.28-.85-1.54-4.89-1.54-4.89s-1.65-7.21-.49-10a16.67,16.67,0,0,1,7.52-7.6c2.87-1.2,25.61,7.56,27.23,13.89a50.58,50.58,0,0,1,1.23,17.68c-.66,4.08-1.15,10.06.79,12,12,11.77,1.52,22.77.57,24.51s-7.55-9.46-7.55-9.46l-34.76,12.26s-2.85-9.5,2.52-17.38C636.8,181.14,634.51,160.12,634.51,160.12Z"/><path class="cls-3" d="M607,201.53c.44-.64,32.06-6.73,34.73-7s-.3,15.39-.3,15.39l-25.23,11.48Z"/><path class="cls-4" d="M626.38,201.1s-3-10.93-5.81-11.14-3.08,8.76-.52,18.24c2.39,8.86,7.83,20.09,10.11,18.41a2.24,2.24,0,0,0,.79-2s-.24,1.16-1,1c-1.37-.27-4.93-9-7.36-18-1.71-6.37-2.63-13.32-1.51-14.89C622.42,190.79,626.38,201.1,626.38,201.1Z"/><path class="cls-4" d="M633.83,194.11s-1.3-14.84-4.88-15.77-6,10.59-5,23.45c1,12,4.94,26,8.57,25.46,2.78-.44,3.24-3.74,3.24-3.74s-1.58,3-3.4,2.31-4-12-5-24.24c-.72-8.63-.27-17.84,1.54-19.6C631.15,179.85,633.83,194.11,633.83,194.11Z"/><path class="cls-5" d="M641.15,179,644,191.07s4.09,5.75,7.74,3.14a34.33,34.33,0,0,1,5.57-3.44l-6.74-16.54Z"/><path class="cls-6" d="M640.12,140.09l-6.21,11.67s-3.26,10.53-4.06,11.21a14.4,14.4,0,0,0-2,2.56l1.78,2.23-1,12s8.92,3.75,13.82,1.49,8.93-8.87,8.93-8.87,5.18-3.21,6.3-5,1.78-5.88.46-5.65a14.74,14.74,0,0,1-3.63-.16s4.9-9.57,3.1-13.81-5-7.86-9.55-8.9A10.89,10.89,0,0,0,640.12,140.09Z"/><path class="cls-6" d="M618.88,317.65c-1.09,3.09,14.49,109.94,14.49,109.94s18.48,122,19.14,119.85,7.46,0,7.46,0,4.71-83.78,2.93-98.94-10.39-31.76-10.39-31.76l8.07-99.12-8.07,18.84,39.92,97.56L733,547.47l7.67-2.92c-14.51-76.65-11.53-76.86-17-97.49-1.69-6.37-15.78-27.58-15.78-27.58s-6.56-54.32-15.5-76.89-41.29-70.22-41.29-70.22Z"/><path class="cls-3" d="M635.08,253.47s-9.29,26.79-15,50.77c-4.82,20.32-8.28,53.59-8.28,53.59h96.34s-27.74-68.49-34.95-82.95-20.4-24.37-20.4-24.37Z"/><path class="cls-7" d="M657.3,190.77s20,8.59,22.35,11.25-16.86,58-16.86,58l-30,.07s-8.72-27.78-6.69-42.32,5.54-18.72,9.32-21.58,10.48-3.73,10.48-3.73Z"/><path class="cls-2" d="M650.92,136.27c-2.93-.52-9.27-.07-11.73,2.13s-3.44,6.67-3.44,6.67,3.5,3.24,6.37,10.43,12.11,7.38,12.11,7.38l14-1.14s.64-10.33-4-17.72C661,138.83,654.71,137,650.92,136.27Z"/><path class="cls-8" d="M611.83,364.73v1.18a4.09,4.09,0,0,0,7,2.88l.45-.45.43,2a4.08,4.08,0,0,0,6.66,2.24l6.44-5.55,17.32,8.69a4.1,4.1,0,0,0,4.8-.84l6.87-7.26,4.9,6a4.08,4.08,0,0,0,6,.36l7-6.75,9.09,6.67a4.08,4.08,0,0,0,6.18-1.7c1.07-2.54,2.34-5,3-4.31.49.51,3.22,1.65,6.42,2.88a4.09,4.09,0,0,0,4.89-6h-97.4Z"/><path class="cls-3" d="M635.08,204,644,189s.26,2.4,4.43,2a30.94,30.94,0,0,0,8.17-2l5.19,3.71-7.43,11.63-7.86-9.48Z"/><path class="cls-3" d="M675.71,244.11s-6.82-19-7.43-29.71c-.67-11.69,4.8-21.64,12.12-11.69s18.26,41.4,18.26,41.4Z"/><circle class="cls-3" cx="643.93" cy="205.31" r="1.32"/><circle class="cls-3" cx="640.85" cy="217.94" r="1.32"/><rect class="cls-3" x="611.83" y="361.25" width="97.39" height="3.49"/><path class="cls-8" d="M651.84,549.86l-2.89-6a1.18,1.18,0,0,1,1.8-1.43l5,4.06,1.18-2.56a1.17,1.17,0,0,1,2.24.49h0l4.78-3.05a1.18,1.18,0,0,1,1.68,1.53L662,549.86Z"/><path class="cls-8" d="M729.88,547.47l-1.08-3.91a1.25,1.25,0,0,1,2.08-1.24l2.21,2.15,9.23-5.82a1.25,1.25,0,0,1,1.86,1.46l-1.49,4.36h3a1.26,1.26,0,0,1,.71,2.29l-2.8,1.94H729.88Z"/><path class="cls-4" d="M648.61,549.86v13.43s-10.86,13.62-15,14.41-6.32,0-6.32,0l-2,6.52h24.27s3.18-8.49,6.14-8.89,0,8.89,0,8.89h4.74s5.93-8.29,4.74-13a18,18,0,0,0-4.14-7.7l1.57-13.63Z"/><path class="cls-4" d="M730.5,548.7l5.24,16a7.73,7.73,0,0,0-2.62,4.08c-.87,2.91.62,13.57.62,13.57h4.08l.8,1.86h21.76l-1.74-5.82a18.84,18.84,0,0,1-5.86-5,73.72,73.72,0,0,1-5.25-9.53l-3.34-15.14Z"/><ellipse class="cls-4" cx="636.97" cy="140.04" rx="6.47" ry="3.07" transform="matrix(0.6, -0.8, 0.8, 0.6, 140.76, 563.27)"/><polygon class="cls-4" points="640.15 133.6 641.32 135.41 638.68 141.2 632.7 144.81 631.6 143.08 640.15 133.6"/><ellipse class="cls-9" cx="635.96" cy="138.46" rx="6.47" ry="3.07" transform="translate(141.62 561.83) rotate(-52.86)"/><ellipse class="cls-4" cx="646.01" cy="142.04" rx="6.86" ry="3.63" transform="translate(108.74 527.84) rotate(-48.08)"/><path class="cls-1" d="M692.93,244.11l2.3,15.43s6.8,8.4,9.5,17.3,9.17,43.06,9.17,43.06L724.42,335l-8.49,10.63-11.2-3.28,3.1-22.45-28-75.79Z"/><polygon class="cls-4" points="649.73 135.4 651.04 137.53 647.95 143.52 641.07 146.72 639.83 144.69 649.73 135.4"/><ellipse class="cls-10" cx="644.86" cy="140.19" rx="6.86" ry="3.63" transform="translate(109.74 526.38) rotate(-48.08)"/><polygon class="cls-4" points="649.79 141.4 656.75 153.56 656.18 157.21 647.68 143.97 649.79 141.4"/><path class="cls-4" d="M683.39,203.38s6.17-9.52,4.45-11.75-8.58,3.53-14,11.75c-5,7.68-9.79,19.2-7,19.8a2.27,2.27,0,0,0,2-.77s-1,.59-1.42-.09c-.71-1.22,3.42-9.66,8.53-17.47,3.61-5.52,8.19-10.84,10.11-11C688.46,193.56,683.39,203.38,683.39,203.38Z"/><path class="cls-4" d="M679.48,194.81s5-14.53,2-16.9-10.12,7.45-14.49,20c-4.08,11.73-6.25,26.59-2.58,27.57,2.79.75,4.61-2.17,4.61-2.17s-2.75,2.2-4.17.76,1.27-13,5.43-24.94c2.94-8.43,7.22-16.92,9.67-17.81C682.92,180.25,679.48,194.81,679.48,194.81Z"/><path class="cls-11" d="M623.71,152s3.27-5,1.9-8.13-3.33-4.89-4.33-6.42-1.47-2.29-1.47-2.29-1.62,1.73.13,4.57c.54.87,1.57,3.28,1.57,3.28s-3.47,4.18-1.54,7.1S623.71,152,623.71,152Z"/></g></g></mask><linearGradient id="Безымянный_градиент_9" x1="-153.01" y1="354.06" x2="-6.42" y2="354.06" gradientTransform="matrix(-1, 0, 0, 1, 632.67, 0)" gradientUnits="userSpaceOnUse"><stop offset="0" stop-color="#23203d"/><stop offset="1" stop-color="#5a6b8e" stop-opacity="0.5"/></linearGradient><linearGradient id="Безымянный_градиент_38-2" x1="1468.46" y1="241.19" x2="1532.32" y2="171.13" gradientTransform="translate(-716.84 881.88) rotate(-28.93)" xlink:href="#Безымянный_градиент_38"/><linearGradient id="Безымянный_градиент_38-3" x1="1585.04" y1="231.17" x2="1606.88" y2="207.21" gradientTransform="translate(-716.84 881.88) rotate(-28.93)" xlink:href="#Безымянный_градиент_38"/><linearGradient id="Безымянный_градиент_38-4" x1="1584.5" y1="222" x2="1605.7" y2="198.74" xlink:href="#Безымянный_градиент_38"/><linearGradient id="Безымянный_градиент_38-5" x1="1403.3" y1="279.55" x2="1569.11" y2="97.63" gradientTransform="translate(-658.4 1008.34) rotate(-34.28)" xlink:href="#Безымянный_градиент_38"/><linearGradient id="Безымянный_градиент_36" x1="-17.45" y1="140.09" x2="-6.81" y2="140.09" gradientTransform="matrix(-0.67, -0.74, -0.74, 0.67, 740.94, 37.47)" xlink:href="#Безымянный_градиент_34"/><mask id="mask-2" x="270.17" y="0" width="117.17" height="200.1" maskUnits="userSpaceOnUse"><g class="cls-44"><g transform="translate(-85.01 -5.86)"><path class="cls-1" d="M374.15,48.19l-7.95-8s-7.77-4.72-8.85-6c-1.55-1.88-1.14-1.81-1.14-1.81l8.16,3.53s-6.24-4.92-7.61-7-1.14-6.43-1.14-6.43l12.37,10s-7.87-9.83-8.21-11.29.14-1.63.14-1.63l17.53,16.61,2.49,9.93Z"/><path class="cls-3" d="M466.83,157.05s-11.76-10.91-18.44-19.3-26.08-27.17-26.08-27.17a107.89,107.89,0,0,0-8.39-20c-8.68-15.12-33.86-47.47-33.86-47.47l-5.8,4.81L408.92,119,462.37,206Z"/><path class="cls-12" d="M469.92,158s-2.95-5.48-7.28-5.58c-1.71,0-8.32,0-11.05,9.67-2.16,7.65,5.56,35.38,5.56,35.38s-5.9-30.27,2.69-38.17C463.58,155.87,469.92,158,469.92,158Z"/><path class="cls-12" d="M425.91,107.58s-22.64,2-24.94,6a52.05,52.05,0,0,0-2.92,5.51Z"/><path class="cls-12" d="M426.67,109l-28,15.85a8.05,8.05,0,0,0,6.39-.44C408.22,122.61,426.67,109,426.67,109Z"/></g></g></mask><linearGradient id="Безымянный_градиент_9-2" x1="160.32" y1="85.57" x2="277.49" y2="85.57" xlink:href="#Безымянный_градиент_9"/><linearGradient id="Безымянный_градиент_91-3" x1="100.85" y1="210.03" x2="177.84" y2="210.03" xlink:href="#Безымянный_градиент_91"/><linearGradient id="Безымянный_градиент_11-3" x1="147.75" y1="153.21" x2="147.75" y2="111.68" xlink:href="#Безымянный_градиент_11"/><linearGradient id="Безымянный_градиент_11-4" x1="147.22" y1="136.38" x2="147.22" y2="111.66" xlink:href="#Безымянный_градиент_11"/><linearGradient id="Безымянный_градиент_91-4" x1="55.39" y1="405.68" x2="180.12" y2="405.68" xlink:href="#Безымянный_градиент_91"/><linearGradient id="Безымянный_градиент_93-3" x1="161.09" y1="559.68" x2="219" y2="559.68" xlink:href="#Безымянный_градиент_93"/><linearGradient id="Безымянный_градиент_93-4" x1="33.06" y1="560.8" x2="71.89" y2="560.8" xlink:href="#Безымянный_градиент_93"/><linearGradient id="Безымянный_градиент_48" x1="204.32" y1="201.6" x2="242.14" y2="160.11" gradientUnits="userSpaceOnUse"><stop offset="0" stop-color="#e96331"/><stop offset="1" stop-color="#fbce4f"/></linearGradient><linearGradient id="Безымянный_градиент_45" x1="146.83" y1="167.68" x2="168.53" y2="143.87" gradientUnits="userSpaceOnUse"><stop offset="0" stop-color="#fcfbec"/><stop offset="1" stop-color="#afbcb9"/></linearGradient><linearGradient id="Безымянный_градиент_48-2" x1="109.77" y1="237.98" x2="272.03" y2="59.97" xlink:href="#Безымянный_градиент_48"/><linearGradient id="Безымянный_градиент_48-3" x1="180.44" y1="212.58" x2="261.01" y2="124.2" xlink:href="#Безымянный_градиент_48"/><linearGradient id="Безымянный_градиент_48-4" x1="224.43" y1="183.39" x2="246.88" y2="158.76" xlink:href="#Безымянный_градиент_48"/><mask id="mask-3" x="270.58" y="13.71" width="261.27" height="579.91" maskUnits="userSpaceOnUse"><g class="cls-44"><g transform="translate(-85.01 -5.86)"><path class="cls-1" d="M374.14,48.21l-7.95-8s-7.77-4.72-8.85-6c-1.56-1.88-1.14-1.82-1.14-1.82l8.16,3.54s-6.24-4.92-7.61-7-1.15-6.43-1.15-6.43l12.38,10s-7.87-9.83-8.21-11.3.14-1.62.14-1.62l17.53,16.6,2.49,9.94Z"/><path class="cls-11" d="M380.36,44.63s-.43-5.89-3.17-9.09-5.64-4.51-7.34-5.94l-2.55-2.13s-1.26,2.6,1.8,5.28c.94.82,3,3.27,3,3.27s-2.54,6.11.75,8.81S380.36,44.63,380.36,44.63Z"/><path class="cls-3" d="M466.82,157.07s-11.76-10.91-18.44-19.3S422.3,110.6,422.3,110.6a107.89,107.89,0,0,0-8.39-20C405.23,75.47,380,43.11,380,43.11l-5.79,4.82,34.66,71.12L462.36,206Z"/><path class="cls-13" d="M500.75,163.52a15.67,15.67,0,0,1-6.21,6.16c-4.1,2-10.82-6.08-10.82-6.08l-21.85-8.83s-8.14,7.12-6.92,24.58c1.53,22,9.21,86,9.21,86h47.22s18.06-53,19.7-68.57,0-25,0-25Z"/><path class="cls-1" d="M579.45,320.19l7.11,7.85s12.27,5.32,13.54,5.53,2.55,1.7,1.28,2.12-8.51-1.27-8.51-1.27,8.08,7.44,9,8.08,1.59,3,0,3-3.3.85-4.79,0-9.57-7-9.57-7,6.17,9.79,6.17,10.42-.43,1.71-1.49,1.49S581,337,581,337a2.49,2.49,0,0,0-2.56-.64c-1.7.43-3.61,5.32-5.53,5.53a16.69,16.69,0,0,1-3.61,0S571.6,338,572,337s1.29-4.16,2.35-7.87a7.64,7.64,0,0,0-1.5-6.64Z"/><polygon class="cls-14" points="495.43 145.89 498.17 163.38 492.88 173.89 482.79 173.09 479.4 157.59 489.65 145.89 495.43 145.89"/><polygon class="cls-12" points="485.36 170.96 482.45 265.34 477.8 265.34 477.8 174.19 485.36 170.96"/><path class="cls-12" d="M499.13,163c1.18-.78,8.14,2.1,8.14,2.1s-9.9,9.36-15.12,11.1C475,182,472.41,164.79,475,160.09c0,0,5.4,1.25,5.52,2.47.24,2.32,1.14,11.79,9.13,5.82A41.76,41.76,0,0,1,499.13,163Z"/><path class="cls-12" d="M540.05,190.22s-.24-7.14-.56-12c-.16-2.5-1-11.67-6.93-13-5.73-1.26-14.84,5.62-14.77,21.45.06,13.58,8.18,29.43,8.18,28.83s-4.09-26.82-.26-34.12c5.34-10.19,8.44-2.61,9.07-.88C535.3,181.86,540.05,190.22,540.05,190.22Z"/><path class="cls-3" d="M531.27,173.11s8.31,6.44,14,32.87c4,18.57,12.32,43.72,12.32,43.72s6.56,12.3,9.21,17.83c5.39,11.22,15.29,55.06,15.29,55.06h-8.31s-52.37-101.3-52.37-127.78C521.45,179.25,531.27,173.11,531.27,173.11Z"/><path class="cls-12" d="M537.25,254.39s18.82-12.73,23.13-11.08a52.82,52.82,0,0,1,5.74,2.43Z"/><path class="cls-12" d="M537.51,255.94l31.75-5.4a8.1,8.1,0,0,1-5.24,3.7C560.45,254.89,537.51,255.94,537.51,255.94Z"/><path class="cls-12" d="M469.91,158s-3-5.48-7.28-5.58c-1.72,0-8.32,0-11.05,9.67-2.16,7.65,5.56,35.38,5.56,35.38s-5.9-30.28,2.69-38.17C463.57,155.88,469.91,158,469.91,158Z"/><path class="cls-15" d="M478,139.34s-2.32-12.63-1.92-16,2.48-7.13,4.82-8.06,9.84-4.48,18.15-1.27c9.8,3.78,11.13,13.29,10.48,18.68-.75,6.35-12.56,22.3-12.56,22.3l-2.32-2.59Z"/><path class="cls-1" d="M479.78,122.47,477,128.65l-.44,4.8-1.45,7.44,1.27,12.36c.62,4.15,2.35,5.76,3,5.9,0,0,4.4.79,5.55.79,1.58,0,7.85-2.54,8.93-5.21,2.17-5.38,2.57-4.55,2.57-4.55s1.72.47,4.3-2.49c1.14-1.32,3.67-5.86,1.21-6.9-1.52-.65-3.68,1-3.68,1s5.66-13.39.84-17-7.44-3.73-11-4.37S479.78,122.47,479.78,122.47Z"/><path class="cls-16" d="M485.8,122.32s3.78-2.53,6.24-1.41,3.75,10.23,6.59,13.51S507,139.3,507,139.3s5-8.15,1-16.93c-2.9-6.36-10.27-9.29-13.27-9.44-18.71-.9-17,8.68-17,8.68s5.94-3.35,6.27-1.68A3.65,3.65,0,0,0,485.8,122.32Z"/><path class="cls-17" d="M511.61,274.08s13.77,27.51,16.51,39S539,378,544.29,405.7c2.78,14.56,8,16.11,15.48,39.07,6.51,19.88,17.5,101.26,17.5,101.26s-14.14,1.64-12.54,0-75.37-217.42-75.37-217.42-8.47,64.84-9.93,70.31a74.23,74.23,0,0,0-1.72,13.53s.83,16.51,1.81,29.1-14.3,102.83-14.3,102.83l-12.68-1.09s1.81-178.47,2-203.65,9.82-75,9.82-75Z"/><polygon class="cls-12" points="511.61 265.5 511.61 274.94 462.78 274.92 464.4 265.5 511.61 265.5"/><rect class="cls-7" x="498.78" y="264.23" width="6.84" height="13.14"/><rect class="cls-7" x="488.94" y="263.65" width="2.87" height="13.14"/><rect class="cls-7" x="471.09" y="263.65" width="2.87" height="13.14"/><path class="cls-18" d="M467,539.15V558.9s4.21,4,4.55,9-2.28,12.34-2.28,12.34h-3.72l-.33-3.35a2.58,2.58,0,0,0-4.69.28l-1.18,3.07h-5.62l-1-2.56a2.58,2.58,0,0,0-4.81,0l-1,2.52h-4.76l-.81-2.14a2.58,2.58,0,0,0-4.73-.23l-1.17,2.37h-4.31l-1-2.23c-.6-1.67-2.76-1.81-3.86-.17l-1,2.4h-4.1l-.91-2.1a1.73,1.73,0,0,0-3.31,0l-1,2.11-5.29,0s-1.59-12.11,4.52-13.67,15.41-1.07,15.41-1.07,8.94-2.4,12.8-5.66,6.05-20.71,6.05-20.71Z"/><path class="cls-19" d="M563.05,575.36s-2.26-13.17-.91-15.15a38.74,38.74,0,0,1,2.53-3.33l-3.9-19.23h18.52l4.66,20s11.82,10.24,13.15,13.73S599.6,584,599.6,584h-1.49L597,582.14c-.81-1.4-3.71-1.15-4.17.41l-.42,1.45h-4.13L587,582c-.91-1.36-3.81-.94-4.14.66l-.27,1.33h-4.31L577,581.93c-.89-1.41-3.87-1-4.17.65l-.26,1.42H567.9v-8.52Z"/><rect class="cls-7" x="463.75" y="264.05" width="2.87" height="13.14"/><path class="cls-12" d="M425.9,107.6s-22.64,2-24.94,6a52.55,52.55,0,0,0-2.92,5.52Z"/><path class="cls-12" d="M426.66,109l-28,15.85a8.05,8.05,0,0,0,6.39-.44C408.21,122.63,426.66,109,426.66,109Z"/></g></g></mask><linearGradient id="Безымянный_градиент_9-3" x1="15.82" y1="342.93" x2="177.11" y2="342.93" xlink:href="#Безымянный_градиент_9"/></defs><title>на главную</title><path class="cls-1" d="M617.93,199.79l-11,1.64,17.35-50.68a107.74,107.74,0,0,0-3.5-11.24,34.93,34.93,0,0,0-8.42-13.33s-.9.48-.59,2.11c.07.34,5,9.7,5.1,10.07s-6.79-9-6.86-8.77c-.57,1.83-1.54,4.12,1.78,12.35.51,1.26,5.79,8.74,5.79,8.74s-13,25.18-22.21,44.61c-5.52,11.58-.9,15.28-.9,15.28l28.12,2.1Z" transform="translate(-85.01 -5.86)"/><path class="cls-2" d="M634.45,160c-.28-.85-1.53-4.89-1.53-4.89s-1.66-7.21-.49-10a16.6,16.6,0,0,1,7.51-7.6c2.87-1.2,25.62,7.56,27.23,13.89a50.86,50.86,0,0,1,1.24,17.68c-.66,4.09-1.16,10.06.78,12,11.95,11.77,1.52,22.77.57,24.51s-7.55-9.46-7.55-9.46l-34.75,12.26s-2.85-9.5,2.51-17.37C636.74,181,634.45,160,634.45,160Z" transform="translate(-85.01 -5.86)"/><path class="cls-3" d="M606.92,201.43c.44-.64,32.06-6.73,34.73-7s-.3,15.39-.3,15.39l-25.22,11.48Z" transform="translate(-85.01 -5.86)"/><path class="cls-4" d="M626.32,201s-3-10.93-5.81-11.14-3.07,8.76-.52,18.24c2.39,8.86,7.83,20.09,10.11,18.41a2.26,2.26,0,0,0,.8-2s-.25,1.16-1,1c-1.38-.28-4.94-9-7.37-18-1.71-6.37-2.63-13.32-1.51-14.89C622.37,190.69,626.32,201,626.32,201Z" transform="translate(-85.01 -5.86)"/><path class="cls-4" d="M633.77,194s-1.29-14.84-4.88-15.77-6,10.59-5,23.45c1,12,4.93,26,8.57,25.46,2.77-.44,3.23-3.74,3.23-3.74s-1.57,3-3.4,2.31-4-12-5-24.24c-.72-8.63-.27-17.84,1.55-19.59C631.09,179.75,633.77,194,633.77,194Z" transform="translate(-85.01 -5.86)"/><path class="cls-5" d="M641.09,178.88l2.84,12.1s4.1,5.74,7.74,3.13a34.88,34.88,0,0,1,5.57-3.44l-6.73-16.54Z" transform="translate(-85.01 -5.86)"/><path class="cls-6" d="M640.06,140l-6.2,11.67s-3.27,10.53-4.07,11.21a14.4,14.4,0,0,0-2,2.56l1.78,2.24-1,12s8.92,3.75,13.82,1.49,8.93-8.87,8.93-8.87,5.18-3.21,6.3-5,1.78-5.87.46-5.65a14.78,14.78,0,0,1-3.63-.16s4.9-9.57,3.1-13.81-5-7.86-9.55-8.89A10.88,10.88,0,0,0,640.06,140Z" transform="translate(-85.01 -5.86)"/><path class="cls-6" d="M618.83,317.55c-1.09,3.09,14.48,109.94,14.48,109.94s18.49,122,19.15,119.85,7.46,0,7.46,0,4.71-83.78,2.92-98.94-10.38-31.76-10.38-31.76l8.06-99.12-8.06,18.84L692.37,434,733,547.37l7.68-2.92c-14.52-76.65-11.54-76.86-17-97.49-1.69-6.37-15.78-27.57-15.78-27.57s-6.57-54.33-15.51-76.9-41.28-70.21-41.28-70.21Z" transform="translate(-85.01 -5.86)"/><path class="cls-3" d="M635,253.37s-9.28,26.79-15,50.78c-4.81,20.31-8.27,53.58-8.27,53.58h96.33s-27.73-68.49-35-83-20.39-24.36-20.39-24.36Z" transform="translate(-85.01 -5.86)"/><path class="cls-7" d="M657.24,190.67s20,8.59,22.35,11.26-16.85,58-16.85,58l-30,.07s-8.72-27.78-6.68-42.32,5.53-18.72,9.31-21.58,10.49-3.73,10.49-3.73Z" transform="translate(-85.01 -5.86)"/><path class="cls-2" d="M650.86,136.17c-2.93-.52-9.27-.07-11.73,2.13s-3.44,6.67-3.44,6.67,3.51,3.24,6.37,10.43,12.11,7.38,12.11,7.38l14-1.14s.63-10.33-4-17.71C660.94,138.74,654.65,136.86,650.86,136.17Z" transform="translate(-85.01 -5.86)"/><path class="cls-8" d="M611.78,364.63v1.18a4.08,4.08,0,0,0,7,2.89l.45-.46.43,2a4.08,4.08,0,0,0,6.66,2.24l6.44-5.55,17.32,8.69a4.08,4.08,0,0,0,4.8-.84l6.88-7.26,4.89,6a4.09,4.09,0,0,0,6,.35l7-6.75,9.09,6.68a4.09,4.09,0,0,0,6.18-1.71c1.08-2.54,2.34-5,3-4.31.49.51,3.23,1.66,6.42,2.88a4.09,4.09,0,0,0,4.89-6H611.78Z" transform="translate(-85.01 -5.86)"/><path class="cls-3" d="M635,203.89l8.91-15s.26,2.41,4.44,2a30.61,30.61,0,0,0,8.16-2l5.2,3.71-7.44,11.64-7.86-9.49Z" transform="translate(-85.01 -5.86)"/><path class="cls-3" d="M675.65,244s-6.82-19-7.43-29.7c-.66-11.7,4.81-21.65,12.12-11.7S698.61,244,698.61,244Z" transform="translate(-85.01 -5.86)"/><circle class="cls-3" cx="558.86" cy="199.36" r="1.32"/><circle class="cls-3" cx="555.78" cy="211.99" r="1.32"/><rect class="cls-3" x="526.77" y="355.29" width="97.39" height="3.49"/><path class="cls-8" d="M648.56,549.76l.33-6a1.17,1.17,0,0,1,1.8-1.42l5,4.05,1.17-2.56a1.17,1.17,0,0,1,2.24.49h0l4.78-3a1.18,1.18,0,0,1,1.68,1.53l-3.54,6.9Z" transform="translate(-85.01 -5.86)"/><path class="cls-8" d="M729.83,547.37l-1.09-3.91a1.25,1.25,0,0,1,2.08-1.23l2.21,2.14,9.23-5.82a1.25,1.25,0,0,1,1.86,1.46l-1.48,4.36h3a1.26,1.26,0,0,1,.72,2.29l-2.81,1.94H729.83Z" transform="translate(-85.01 -5.86)"/><ellipse class="cls-4" cx="636.91" cy="139.94" rx="6.47" ry="3.07" transform="translate(55.81 557.33) rotate(-52.86)"/><polyline class="cls-20" points="702.1 314.12 709.02 290.87 691.81 298.01 685.47 319.82"/><polygon class="cls-4" points="555.09 127.64 556.25 129.46 553.61 135.24 547.64 138.86 546.54 137.13 555.09 127.64"/><ellipse class="cls-21" cx="635.9" cy="138.36" rx="6.47" ry="3.07" transform="translate(56.67 555.89) rotate(-52.86)"/><g class="cls-22"><path class="cls-23" d="M645.67,108.11s2.46,50.88-1.14,58.53-.88,22.82-.88,22.82-5.3,23.72-4.47,36.6-.08,34.46-.08,34.46L657,600l15.18-5.1-4.22-206.62s15.78,7.65,19.89,17.92,66.7,186,66.7,186h31.18L698.33,176Z" transform="translate(-85.01 -5.86)"/></g><ellipse class="cls-4" cx="645.95" cy="141.94" rx="6.86" ry="3.63" transform="translate(23.78 521.91) rotate(-48.08)"/><path class="cls-24" d="M781.33,308.2S665.21,328.34,642.53,335s-34.06,17.43-33.16,25.95,22.68,6.54,36.75,1.88,137.27-50.88,137.27-50.88Z" transform="translate(-85.01 -5.86)"/><path class="cls-25" d="M773.82,315.51l20.5-7.66L794.05,287s-11.83,5.55-15.38,10.63C774.44,303.7,773.82,315.51,773.82,315.51Z" transform="translate(-85.01 -5.86)"/><polygon class="cls-26" points="715.58 266.67 699.33 273.41 692.58 294.76 709.15 288.3 715.58 266.67"/><path class="cls-27" d="M702.83,206.51s6.45,6.64,7.32,10.73c1.17,5.53-22.8,108-31.84,127.23-7.83,16.69-31.38,80.17-42.48,96.94h0a59.38,59.38,0,0,1-10.09-2.78s4.11,6.86,7.14,6.5l8.58-3.58a4.73,4.73,0,0,0,2.14-.89c4-3.3,65.51-106.91,65.51-106.91s10.46-117.16,9.73-119.6C717,208.18,702.83,206.51,702.83,206.51Z" transform="translate(-85.01 -5.86)"/><path class="cls-1" d="M692.88,244l2.29,15.43s6.8,8.4,9.5,17.31,9.18,43.05,9.18,43.05l10.52,15.1-8.5,10.63-11.2-3.28,3.11-22.45-28-75.79Z" transform="translate(-85.01 -5.86)"/><path class="cls-4" d="M730.44,548.6l5.25,16a7.71,7.71,0,0,0-2.63,4.08c-.87,2.91.62,13.58.62,13.58h4.08l.8,1.85h21.77l-1.75-5.82a18.89,18.89,0,0,1-5.86-5,73.75,73.75,0,0,1-5.24-9.54l-3.35-15.14Z" transform="translate(-85.01 -5.86)"/><polygon class="cls-4" points="564.66 129.45 565.97 131.58 562.88 137.56 556 140.76 554.76 138.73 564.66 129.45"/><ellipse class="cls-28" cx="644.81" cy="140.09" rx="6.86" ry="3.63" transform="translate(24.78 520.45) rotate(-48.08)"/><polygon class="cls-4" points="564.73 135.45 571.68 147.6 571.11 151.25 562.62 138.02 564.73 135.45"/><path class="cls-4" d="M683.33,203.28s6.17-9.52,4.45-11.75-8.58,3.53-14,11.75c-5,7.68-9.78,19.21-7,19.8a2.27,2.27,0,0,0,2.05-.77s-1,.59-1.43-.09c-.71-1.22,3.42-9.66,8.53-17.47,3.62-5.52,8.2-10.84,10.11-11C688.4,193.46,683.33,203.28,683.33,203.28Z" transform="translate(-85.01 -5.86)"/><path class="cls-4" d="M679.42,194.71s5-14.52,2-16.9-10.12,7.46-14.5,20c-4.08,11.73-6.25,26.59-2.58,27.58,2.8.74,4.62-2.18,4.62-2.18s-2.76,2.21-4.18.76,1.28-13,5.44-24.93c2.94-8.44,7.21-16.93,9.66-17.82C682.86,180.15,679.42,194.71,679.42,194.71Z" transform="translate(-85.01 -5.86)"/><path class="cls-4" d="M648.56,549.76v13.43s-10.86,13.63-15,14.42-6.32,0-6.32,0l-2,6.51h24.27s3.18-8.49,6.15-8.88,0,8.88,0,8.88h4.74s5.92-8.29,4.74-13a18,18,0,0,0-4.15-7.7l1.58-13.63Z" transform="translate(-85.01 -5.86)"/><path class="cls-1" d="M374.15,48.19l-7.95-8s-7.76-4.72-8.85-6c-1.55-1.88-1.14-1.82-1.14-1.82l8.16,3.53s-6.24-4.91-7.61-7-1.14-6.43-1.14-6.43l12.37,10s-7.87-9.84-8.2-11.3.14-1.62.14-1.62l17.52,16.6,2.49,9.94Z" transform="translate(-85.01 -5.86)"/><path class="cls-3" d="M466.83,157.05s-11.76-10.92-18.44-19.3-26.08-27.17-26.08-27.17a107.84,107.84,0,0,0-8.39-20c-8.68-15.11-33.86-47.47-33.86-47.47l-5.8,4.81L408.92,119,462.37,206Z" transform="translate(-85.01 -5.86)"/><g class="cls-29"><path class="cls-30" d="M355.18,15.86s16.46,22.85,31.43,46.32,69.76,103.11,69.76,103.11l16-10.19L377.3,5.86,355.41,8.48Z" transform="translate(-85.01 -5.86)"/></g><path class="cls-11" d="M380.2,43.28a14.69,14.69,0,0,0-3-7.76c-2.73-3.21-5.64-4.51-7.34-5.94l-2.55-2.13s-1.26,2.6,1.8,5.28c.94.82,3,3.26,3,3.26s-2.54,6.12.75,8.82S380.2,43.28,380.2,43.28Z" transform="translate(-85.01 -5.86)"/><path class="cls-31" d="M500.76,163.49a15.6,15.6,0,0,1-6.21,6.16c-4.1,2.06-10.82-6.07-10.82-6.07l-21.85-8.83s-8.14,7.12-6.92,24.58c1.53,22,9.21,86,9.21,86h47.22s18.06-53,19.71-68.57,0-25,0-25Z" transform="translate(-85.01 -5.86)"/><path class="cls-12" d="M469.92,158s-2.95-5.48-7.28-5.58c-1.71,0-8.31,0-11.05,9.66-2.16,7.65,5.56,35.38,5.56,35.38s-5.9-30.27,2.69-38.16C463.58,155.86,469.92,158,469.92,158Z" transform="translate(-85.01 -5.86)"/><path class="cls-1" d="M579.46,320.17l7.11,7.85s12.27,5.31,13.54,5.53,2.56,1.7,1.28,2.12-8.51-1.27-8.51-1.27,8.08,7.44,9,8.08,1.59,3,0,3-3.3.85-4.79,0-9.57-7-9.57-7,6.17,9.78,6.17,10.42-.42,1.7-1.49,1.49S581,337,581,337a2.48,2.48,0,0,0-2.55-.64c-1.71.43-3.62,5.32-5.54,5.53a17.48,17.48,0,0,1-3.61,0S571.61,338,572,337s1.29-4.16,2.35-7.87a7.66,7.66,0,0,0-1.5-6.65Z" transform="translate(-85.01 -5.86)"/><polygon class="cls-14" points="410.44 140.01 413.17 157.5 407.88 168.01 397.79 167.21 394.4 151.71 404.65 140.01 410.44 140.01"/><polygon class="cls-12" points="400.37 165.08 397.45 259.46 392.81 259.46 392.81 168.31 400.37 165.08"/><path class="cls-12" d="M499.14,163c1.18-.77,8.14,2.1,8.14,2.1s-9.9,9.37-15.12,11.11c-17.2,5.74-19.74-11.45-17.1-16.15,0,0,5.39,1.24,5.52,2.47.24,2.32,1.13,11.79,9.12,5.81A42.24,42.24,0,0,1,499.14,163Z" transform="translate(-85.01 -5.86)"/><path class="cls-12" d="M540.06,190.2s-.24-7.14-.56-12c-.16-2.51-1-11.68-6.93-13-5.73-1.26-14.84,5.61-14.77,21.44.07,13.58,8.18,29.44,8.18,28.84s-4.09-26.82-.26-34.12c5.34-10.19,8.44-2.61,9.08-.89C535.31,181.84,540.06,190.2,540.06,190.2Z" transform="translate(-85.01 -5.86)"/><path class="cls-3" d="M531.29,173.09s8.3,6.44,14,32.87c4,18.57,12.32,43.72,12.32,43.72s6.56,12.3,9.21,17.82c5.39,11.23,15.29,55.07,15.29,55.07h-8.31s-52.36-101.3-52.37-127.78C521.46,179.23,531.29,173.09,531.29,173.09Z" transform="translate(-85.01 -5.86)"/><path class="cls-12" d="M537.26,254.37s18.82-12.73,23.13-11.08a52.82,52.82,0,0,1,5.74,2.43Z" transform="translate(-85.01 -5.86)"/><path class="cls-12" d="M537.52,255.92l31.75-5.4a8,8,0,0,1-5.24,3.69C560.46,254.87,537.52,255.92,537.52,255.92Z" transform="translate(-85.01 -5.86)"/><path class="cls-32" d="M478,139.32s-2.32-12.63-1.91-16,2.48-7.12,4.81-8.06,9.85-4.47,18.15-1.26c9.8,3.78,11.13,13.28,10.49,18.68-.76,6.34-12.57,22.3-12.57,22.3l-2.32-2.59Z" transform="translate(-85.01 -5.86)"/><path class="cls-1" d="M479.8,122.45,477,128.63l-.45,4.8-1.45,7.44,1.27,12.35c.63,4.16,2.35,5.77,3,5.9,0,0,4.4.79,5.56.8,1.57,0,7.85-2.54,8.92-5.22,2.17-5.37,2.58-4.54,2.58-4.54s1.71.47,4.29-2.49c1.15-1.32,3.67-5.86,1.21-6.91-1.52-.64-3.68,1-3.68,1s5.66-13.39.84-17-7.44-3.73-11-4.36S479.8,122.45,479.8,122.45Z" transform="translate(-85.01 -5.86)"/><path class="cls-33" d="M485.81,122.3s3.78-2.53,6.25-1.41,3.74,10.22,6.58,13.5,8.37,4.88,8.37,4.88,5-8.14,1-16.92c-2.9-6.36-10.28-9.3-13.28-9.44-18.71-.9-17,8.67-17,8.67s5.93-3.34,6.27-1.67A3.65,3.65,0,0,0,485.81,122.3Z" transform="translate(-85.01 -5.86)"/><path class="cls-34" d="M511.62,274.06s13.77,27.5,16.51,39S539,378,544.31,405.68c2.77,14.56,8,16.11,15.47,39.07,6.51,19.88,17.5,101.25,17.5,101.25s-14.14,1.65-12.54,0-75.36-217.41-75.36-217.41-8.48,64.83-9.94,70.31a74.14,74.14,0,0,0-1.72,13.53s.83,16.51,1.81,29.1-14.3,102.83-14.3,102.83l-12.68-1.09s1.81-178.47,2-203.65,9.82-75,9.82-75Z" transform="translate(-85.01 -5.86)"/><polygon class="cls-12" points="426.62 259.62 426.62 269.07 377.78 269.04 379.4 259.62 426.62 259.62"/><rect class="cls-7" x="413.78" y="258.36" width="6.84" height="13.14"/><rect class="cls-7" x="403.94" y="257.78" width="2.87" height="13.14"/><rect class="cls-7" x="386.09" y="257.78" width="2.87" height="13.14"/><path class="cls-35" d="M467,539.13v19.75s4.22,4,4.55,9-2.27,12.35-2.27,12.35h-3.72l-.34-3.36a2.59,2.59,0,0,0-4.69.29l-1.18,3.07h-4.62l-1-2.56a2.58,2.58,0,0,0-4.81,0l-1,2.52h-3.76l-.81-2.14a2.58,2.58,0,0,0-4.73-.23l-1.17,2.37h-4.31l-1-2.23c-.61-1.67-2.77-1.81-3.87-.17l-1,2.4H423.2l-.92-2.1a1.73,1.73,0,0,0-3.31,0l-1,2.1-4.29,0s1.16-12.68,7.26-14.23,14.35-1.25,14.35-1.25a32.41,32.41,0,0,0,8.12-4.92c3.85-3.26,6-20.71,6-20.71Z" transform="translate(-85.01 -5.86)"/><path class="cls-36" d="M563.06,575.34s-2.26-13.17-.91-15.15a38.74,38.74,0,0,1,2.53-3.33l-3.9-19.23h18.53l4.65,20s11.82,10.24,13.15,13.73,2.5,12.63,2.5,12.63h-1.49l-1.07-1.86c-.81-1.4-3.71-1.15-4.16.4l-.43,1.46h-4.13L587,582c-.91-1.35-3.81-.93-4.14.66l-.27,1.34h-4.31L577,581.91c-.89-1.41-3.86-1-4.17.65l-.26,1.42h-4.62v-8.52Z" transform="translate(-85.01 -5.86)"/><rect class="cls-7" x="378.75" y="258.17" width="2.87" height="13.14"/><path class="cls-12" d="M425.91,107.58s-22.64,2-24.94,6a52.55,52.55,0,0,0-2.92,5.52Z" transform="translate(-85.01 -5.86)"/><path class="cls-12" d="M426.68,109l-28,15.85a8,8,0,0,0,6.39-.45C408.22,122.61,426.68,109,426.68,109Z" transform="translate(-85.01 -5.86)"/><polygon class="cls-37" points="213.97 179.51 230.36 165.84 250.7 167.9 215.13 197.35 195.77 193.81 213.97 179.51 213.97 179.51"/><path class="cls-38" d="M176,150.63s-17.76-4.78-25.64-5.69-11.72,0-11.72,0l-2,13.43L177,166.32Z" transform="translate(-85.01 -5.86)"/><path class="cls-39" d="M282.67,69.68s1.59,9.12,0,13c-2.15,5.22-79.66,76.37-98,87.19-15.87,9.38-73.79,38.37-92.4,46l-.48.15A58.9,58.9,0,0,1,85,208s-.47,8,2.25,9.38l9.09,1.88a4.64,4.64,0,0,0,2.27.47c5.17-.47,117.53-41.39,117.53-41.39S290.83,87.44,291.59,85C293.47,79.07,282.67,69.68,282.67,69.68Z" transform="translate(-85.01 -5.86)"/><path class="cls-40" d="M317.25,175.46s-10.59-1.16-13.05-.31c-4.4,1.53-10,8.4-13.57,13.27-31.44-10.74-93.9-31.89-119.13-39.08,1.09,2.57,1.72,1.87-.37,2.19-4,.6-6.9-.3-13.27-1.6s-18.72-4.49-19.08-5c-9.47.84-15.6,4.13-17.58,8.8-3.34,7.89,16.69,16.69,31.26,19.42S308.63,196.6,308.63,196.6l.71-1.76h0Z" transform="translate(-85.01 -5.86)"/><polygon class="cls-41" points="217.29 176.89 233.69 163.21 254.02 165.27 237.49 178.97 217.29 176.89 217.29 176.89 217.29 176.89"/><path class="cls-11" d="M623.66,151.87s3.27-5,1.9-8.13-3.34-4.89-4.33-6.42-1.48-2.29-1.48-2.29-1.62,1.74.14,4.57c.53.87,1.56,3.29,1.56,3.29s-3.47,4.17-1.54,7.09S623.66,151.87,623.66,151.87Z" transform="translate(-85.01 -5.86)"/><g class="cls-42"><path class="cls-43" d="M490,86.39s9.33,39.67,4.06,56.88c-2.44,8-12.75,24.17-12.75,24.17l-2.76,108.63-23,313,44,5.8s-19.08-255-9.42-261.34S520,379.78,520,379.78l69.1,214.4,27.75,5.3-9.21-247.93s-17.33-58.06-14.27-60.77S540.8,157.32,540.8,157.32Z" transform="translate(-85.01 -5.86)"/></g></svg>